# xmcd
#
# Track frame offsets:
#        150
#        24886
#        43818
#        62165
#        79154
#        98916
#        109797
#        134591
#        145534
#        161649
#        184160
#        204418
#        231432
#        253654
#
# Disc length: 3487 seconds
#
# Revision: 0
# Processed by: cddbd v1.5.1PL2 Copyright (c) Steve Scherf et al.
# Submitted via: ExactAudioCopy v0.95b2
#
DISCID=c20d9d0e
DTITLE=Disgorge(Mex) - Live Germany
DYEAR=2006
DGENRE=Death Metal
TTITLE0=Purpuric Cytoskeletal Glucid Oxidise
TTITLE1=Scid
TTITLE2=Jaundice Of Hookworm
TTITLE3=The Vile Sores In Urticariothrocisism Goulashed Decrepitance
TTITLE4=Jism Adipose Carbonization
TTITLE5=Spasmobliterance Filtrates Scabs
TTITLE6=Rancid Bowel Sarcoma
TTITLE7=Grotesque Devourment
TTITLE8=Crevise Flux Warts
TTITLE9=Urethrive Decorticoxanthomatose Muco Gestated Scaffolds
TTITLE10=Stygmatordermuropyanephrosism On Impetiginose Urogenism
TTITLE11=Inhuman (Originally Performed By Grave) +
TTITLE12=Pedophilamorphia Of Excreacholemical Endolapse
TTITLE13=Bonus Track
EXTD=
EXTT0=
EXTT1=
EXTT2=
EXTT3=
EXTT4=
EXTT5=
EXTT6=
EXTT7=
EXTT8=
EXTT9=
EXTT10=
EXTT11=
EXTT12=
EXTT13=
PLAYORDER=
